# xmcd
#
# Track frame offsets: 
#        150
#        12404
#        26689
#        38682
#        51518
#        64605
#        76896
#        91149
#        104154
#        115409
#        128457
#        140753
#        153487
#        166175
#        177971
#        191166
#        203500
#        215871
#
# Disc length: 3058 seconds
#
# Revision: 0
# Processed by: cddbd v1.4PL0 Copyright (c) Steve Scherf et al.
# Submitted via: ExactAudioCopy v0.95a3
#
DISCID=fd0bf012
DTITLE=T-Bone Walker - Blues Legends 14 - T-Bone Walker
DYEAR=1900
DGENRE=Blues
TTITLE0=T-Bone Jumps Again
TTITLE1=She Had To Let Me Down
TTITLE2=She´s My Old Time Used To Be
TTITLE3=Midnight Blues (John "Shifty" Henry)
TTITLE4=Long Lost Lover Blues (John "Shifty" Henry)
TTITLE5=Too Much Trouble Blues (Booker T. Reed)
TTITLE6=Goodbye Blues (John "Shifty" Henry)
TTITLE7=On Your Way Blues (Booker T. Reed)
TTITLE8=Lonesome Woman Blues (John "Shifty" Henry)
TTITLE9=Mean Old World
TTITLE10=No Worry Blues ( T-Bone Walker - L. Baxter)
TTITLE11=Don´t Leave Me Baby (alt.) ( T-Bone Walker - L. Baxter)
TTITLE12=Don´t Leave Me Baby ( T-Bone Walker - L. Baxter)
TTITLE13=Bobby Sox Baby (Dootsie Williams)
TTITLE14=I´m Gonna Find My Baby ( J. L. Crainer -T-Bone Walker)
TTITLE15=I´m In An Awful Mood ( J. L. Crainer -T-Bone Walker)
TTITLE16=I Know Your Wig Is Gone (R. E. George - T-Bone Walker)
TTITLE17=Call It Stormy Monday But Tuesday Is Just As Bad
EXTD=
EXTT0=
EXTT1=
EXTT2=
EXTT3=
EXTT4=
EXTT5=
EXTT6=
EXTT7=
EXTT8=
EXTT9=
EXTT10=
EXTT11=
EXTT12=
EXTT13=
EXTT14=
EXTT15=
EXTT16=
EXTT17=
PLAYORDER=
